<svg width="42" height="42" viewBox="0 0 42 42" fill="none" xmlns="http://www.w3.org/2000/svg">
<path fill-rule="evenodd" clip-rule="evenodd" d="M42 10.5C42 4.7019 37.2981 0 31.5 0C25.0866 0 16.9134 0 10.5 0C4.7019 0 0 4.7019 0 10.5C0 16.9134 0 25.0866 0 31.5C0 37.2981 4.7019 42 10.5 42C16.9134 42 25.0866 42 31.5 42C37.2981 42 42 37.2981 42 31.5C42 25.0866 42 16.9134 42 10.5Z" fill="url(#paint0_radial_67_8)"/>
<path d="M27.2124 6.30958C31.6035 6.35158 35.646 10.1211 35.6901 14.7873C35.7048 18.9285 35.7048 23.0697 35.6901 27.2109C35.6481 31.5852 31.8786 35.6445 27.2124 35.6886C23.0712 35.7033 18.93 35.7033 14.7888 35.6886C10.3956 35.6466 6.35517 31.8771 6.31107 27.2109C6.29637 23.0697 6.29637 18.9285 6.31107 14.7873C6.35097 10.392 10.1121 6.35368 14.7888 6.30958C18.93 6.29488 23.0712 6.29488 27.2124 6.30958V6.30958ZM14.8455 8.29408C11.4372 8.30458 8.32917 11.2593 8.29557 14.7999C8.28297 18.9327 8.28297 23.0655 8.29557 27.1983C8.32707 30.5688 11.2104 33.6705 14.8014 33.7041C18.9342 33.7167 23.067 33.7167 27.1998 33.7041C30.5787 33.6726 33.672 30.7893 33.7056 27.1983C33.7182 23.0655 33.7182 18.9327 33.7056 14.7999C33.6741 11.4063 30.7341 8.32768 27.1998 8.29408C23.0817 8.28148 18.9636 8.29408 14.8455 8.29408V8.29408Z" fill="white"/>
<path d="M21.0383 13.649C24.4361 13.6805 27.6029 16.3013 28.2245 19.6592C28.6676 22.0532 27.8318 24.6488 26.0678 26.333C24.1043 28.202 21.0656 28.8698 18.4616 27.9164C15.551 26.8517 13.5035 23.7836 13.64 20.6756C13.8059 16.9628 17.0861 13.6616 20.9879 13.649C21.0047 13.649 21.0215 13.649 21.0383 13.649V13.649ZM20.9543 15.6377C18.5288 15.6608 16.2419 17.5004 15.7379 19.8902C15.2276 22.3073 16.6178 24.989 18.9005 25.9529C21.3932 27.0071 24.6125 25.8248 25.8158 23.3636C27.0611 20.8205 25.8872 17.366 23.258 16.1375C22.5419 15.8036 21.746 15.6356 20.9543 15.6377Z" fill="white"/>
<path fill-rule="evenodd" clip-rule="evenodd" d="M30.4417 13.0762C30.4417 12.6709 30.28 12.2824 29.9944 11.9968C29.7088 11.7112 29.3203 11.5495 28.915 11.5495C28.8835 11.5495 28.8499 11.5495 28.8184 11.5495C28.4131 11.5495 28.0246 11.7112 27.739 11.9968C27.4534 12.2824 27.2917 12.6709 27.2917 13.0762C27.2917 13.093 27.2917 13.1077 27.2917 13.1245C27.2917 13.5424 27.4576 13.9435 27.7537 14.2375C28.0477 14.5336 28.4488 14.6995 28.8667 14.6995C29.7361 14.6995 30.4417 13.9939 30.4417 13.1245C30.4417 13.1077 30.4417 13.093 30.4417 13.0762Z" fill="white"/>
<defs>
<radialGradient id="paint0_radial_67_8" cx="0" cy="0" r="1" gradientUnits="userSpaceOnUse" gradientTransform="translate(0 40.95) scale(58.6593)">
<stop stop-color="#FF8100"/>
<stop offset="0.19" stop-color="#FF7209"/>
<stop offset="0.32" stop-color="#F55E16"/>
<stop offset="0.48" stop-color="#D92938"/>
<stop offset="1" stop-color="#9100FF"/>
</radialGradient>
</defs>
</svg>
