<svg width="42" height="42" viewBox="0 0 42 42" fill="none" xmlns="http://www.w3.org/2000/svg">
<g clip-path="url(#clip0_37_45)">
<path fill-rule="evenodd" clip-rule="evenodd" d="M42 5.25C42 2.35241 39.6476 0 36.75 0H5.25C2.35241 0 0 2.35241 0 5.25V36.75C0 39.6476 2.35241 42 5.25 42H36.75C39.6476 42 42 39.6476 42 36.75V5.25Z" fill="#2867B2"/>
<path d="M12.0433 14.6563H5.0083V35.8172H12.0433V14.6563Z" fill="white"/>
<path d="M8.57325 4.45267C6.16637 4.45267 4.59375 6.03505 4.59375 8.10905C4.59375 10.1395 6.11855 11.7655 8.48014 11.7655H8.52559C10.9786 11.7655 12.5054 10.1395 12.5054 8.10905C12.4599 6.03505 10.9787 4.45267 8.57325 4.45267V4.45267Z" fill="white"/>
<path d="M29.308 14.1587C25.5764 14.1587 23.905 16.2108 22.969 17.6523V14.6563H15.9358C16.0291 16.6412 15.9358 35.8171 15.9358 35.8171H22.9689V23.9994C22.9689 23.3668 23.0143 22.7345 23.2008 22.2824C23.7084 21.0191 24.8665 19.7105 26.8096 19.7105C29.3536 19.7105 30.3727 21.6517 30.3727 24.4952V35.8171H37.4062V23.6822C37.4062 17.1823 33.9358 14.1587 29.308 14.1587V14.1587Z" fill="white"/>
</g>
<defs>
<clipPath id="clip0_37_45">
<rect width="42" height="42" fill="white"/>
</clipPath>
</defs>
</svg>
